{
	"asset": {
		"generator": "Blocks 4.0.1_OVR_RC0",
		"version": "1.1",
		"copyright": "Unknown"
	},
	"buffers": {
		"model": {
			"byteLength": 1432,
			"type": "arraybuffer",
			"uri": "model.bin"
		}
	},
	"accessors": {
		"accessor_position_m0-PolyPaper6_-15188": {
			"bufferView": "vec3BufferView",
			"byteOffset": 0,
			"byteStride": 12,
			"componentType": 5126,
			"count": 34,
			"max": [ 0.6299161, 2.640008, 1.370045 ],
			"min": [ 0.5299161, 2.550009, 0.9400446 ],
			"type": "VEC3"
		 },
		"accessor_normal_m0-PolyPaper6_-15188": {
			"bufferView": "vec3BufferView",
			"byteOffset": 408,
			"byteStride": 12,
			"componentType": 5126,
			"count": 34,
			"max": [ 1, 1, 0.9434561 ],
			"min": [ -1, -1, -0.9486837 ],
			"type": "VEC3"
		 },
		"accessor_color_m0-PolyPaper6_-15188": {
			"bufferView": "vec4BufferView",
			"byteOffset": 0,
			"byteStride": 16,
			"componentType": 5126,
			"count": 34,
			"max": [ 0.972549, 0.7333333, 0.8156863, 1 ],
			"min": [ 0.972549, 0.7333333, 0.8156863, 1 ],
			"type": "VEC4"
		 },
		"accessor_indices_0_m0-PolyPaper6_-15188": {
			"bufferView": "ushortBufferView",
			"byteOffset": 0,
			"byteStride": 0,
			"componentType": 5123,
			"count": 36,
			"max": [ 33 ],
			"min": [ 0 ],
			"type": "SCALAR"
		 }
	},
	"bufferViews": {
		"ushortBufferView": {
			"buffer": "model",
			"byteLength": 72,
			"byteOffset": 0,
			"target": 34963
		},
		"vec3BufferView": {
			"buffer": "model",
			"byteLength": 816,
			"byteOffset": 72,
			"target": 34962
		},
		"vec4BufferView": {
			"buffer": "model",
			"byteLength": 544,
			"byteOffset": 888,
			"target": 34962
		}
	},
	"meshes": {
		"mesh_m0-PolyPaper6_-15188": {
			"name": "mesh_m0-PolyPaper6_-15188",
			"primitives": [
				{
					"attributes": {
						"POSITION": "accessor_position_m0-PolyPaper6_-15188",
						"NORMAL": "accessor_normal_m0-PolyPaper6_-15188",
						"COLOR": "accessor_color_m0-PolyPaper6_-15188"
					},
					"indices": "accessor_indices_0_m0-PolyPaper6_-15188",
					"material": "material_mat6",
					"mode": 4
				}
			]
		}
	},
	"shaders": {
		"vertex_mat6": {
			"type": 35633,
			"uri": "https://vr.google.com/shaders/w/vs.glsl"
		},
		"fragment_mat6": {
			"type": 35632,
			"uri": "https://vr.google.com/shaders/w/fs.glsl"
		}
	},
	"programs": {
		"program_mat6": {
			"attributes": [
				"a_position",
				"a_normal",
				"a_color"				
			],
			"vertexShader": "vertex_mat6",
			"fragmentShader": "fragment_mat6"
		}
	},
	"techniques": {
		"technique_mat6": {
			"program": "program_mat6",
			"extras": {"gvrss" : "https://vr.google.com/shaders/w/gvrss/paper.json"},
			"parameters": {
				"position": {
					"type": 35665,
					"semantic": "POSITION"
				},
				"normal": {
					"type": 35665,
					"semantic": "NORMAL"
				},
				"color": {
					"type": 35666,
					"semantic": "COLOR"
				},
				"modelViewMatrix": {
					"type": 35676,
					"semantic": "MODELVIEW"
				},
				"projectionMatrix": {
					"type": 35676,
					"semantic": "PROJECTION"
				},
				"normalMatrix": {
					"type": 35675,
					"semantic": "MODELVIEWINVERSETRANSPOSE"
				},
				"color": {
					"type": 35666
				},
				"roughness": {
					"type": 5126
				},
				"metallic": {
					"type": 5126
				},
				"light0Pos": {
					"type": 35666
				},
				"light0Color": {
					"type": 35666
				},
				"light1Pos": {
					"type": 35666
				},
				"light1Color": {
					"type": 35666
				}				
			},
			"attributes": {
				"a_position": "position",
				"a_normal": "normal",
				"a_color": "color"				
			},
			"uniforms": {
				"u_modelViewMatrix": "modelViewMatrix",
				"u_projectionMatrix": "projectionMatrix",
				"u_normalMatrix": "normalMatrix",
				"u_color": "color",
				"u_roughness": "roughness",
				"u_metallic": "metallic",
				"u_light0Pos": "light0Pos",
				"u_light0Color": "light0Color",
				"u_light1Pos": "light1Pos",
				"u_light1Color": "light1Color"				
			},
			"states": {
				"enable": [
					2929,
					2884
				],
				"functions": {
					"cullFace": [1029]
				}
			}
		}
	},
	"materials": {
		"material_mat6": {
			"technique": "technique_mat6",
			"values": {
				"color": [0.972549, 0.7333333, 0.8156863, 1],
				"roughness": 1,
				"metallic": 0,
				"light0Pos": [-0.02, 4.11, -0.54, 0],
				"light0Color": [1.28, 1.232075, 1.101177, 0],
				"light1Pos": [0.02, -4.11, 0.54, 0],
				"light1Color": [0.2941177, 0.2953672, 0.32, 0]				
			},
			"name": "material_mat6"
		}
	},
	"nodes": {
		"node_MeshObject-872954880-PolyPaper6": {
			"name": "node_MeshObject-872954880-PolyPaper6",
			"meshes": [
				"mesh_m0-PolyPaper6_-15188"
			],
			"matrix": [1, 0, 0, 0, 0, 1, 0, 0, 0, 0, 1, 0, 0, 0, 0, 1]
		}
	},
	"scene": "defaultScene",
	"scenes": {
		"defaultScene": {
			"nodes": [
				"node_MeshObject-872954880-PolyPaper6"
			],
			"extras": {

			}
		}
	}
}