{
	"asset": {
		"generator": "Tilt Brush 22.0b.P",
		"version": "1.1",
		"copyright": "Unknown."
	},
	"buffers": {
		"buffer_sketch": {
			"byteLength": 3962520,
			"type": "arraybuffer",
			"uri": "sketch.bin"
		}
	},
	"accessors": {
		"accessor_position_MatteHull_79348357-432d-4746-8e29-0e25c112e3aa_0_i0": {
			"bufferView": "vec3BufferView",
			"byteOffset": 0,
			"byteStride": 12,
			"componentType": 5126,
			"count": 65160,
			"max": [ 0.409441948, 2.54493833, 0.303794563 ],
			"min": [ -0.409442037, 1.36344039, -0.285920739 ],
			"type": "VEC3"
		},
		"accessor_normal_MatteHull_79348357-432d-4746-8e29-0e25c112e3aa_0_i0": {
			"bufferView": "vec3BufferView",
			"byteOffset": 781920,
			"byteStride": 12,
			"componentType": 5126,
			"count": 65160,
			"max": [ 0.999881089, 0.99984473, 0.999824643 ],
			"min": [ -0.999881029, -0.999997139, -0.999972522 ],
			"type": "VEC3"
		},
		"accessor_color_MatteHull_79348357-432d-4746-8e29-0e25c112e3aa_0_i0": {
			"bufferView": "vec4BufferView",
			"byteOffset": 0,
			"byteStride": 16,
			"componentType": 5126,
			"count": 65160,
			"type": "VEC4"
		},
		"accessor_uv0_MatteHull_79348357-432d-4746-8e29-0e25c112e3aa_0_i0": {
			"bufferView": "vec3BufferView",
			"byteOffset": 1563840,
			"byteStride": 12,
			"componentType": 5126,
			"count": 65160,
			"max": [ 0, 1, 0.0168110337 ],
			"min": [ 0, 1, 0.00176044926 ],
			"type": "VEC3"
		},
		"accessor_indices_0_MatteHull_79348357-432d-4746-8e29-0e25c112e3aa_0_i0": {
			"bufferView": "ushortBufferView",
			"byteOffset": 0,
			"byteStride": 0,
			"componentType": 5123,
			"count": 65160,
			"max": [ 65159 ],
			"min": [ 0 ],
			"type": "SCALAR"
		},
		"accessor_position_MatteHull_79348357-432d-4746-8e29-0e25c112e3aa_0_i1": {
			"bufferView": "vec3BufferView",
			"byteOffset": 2345760,
			"byteStride": 12,
			"componentType": 5126,
			"count": 8220,
			"max": [ 0.519482076, 1.99966562, 0.295528114 ],
			"min": [ -0.16227822, 1.38658643, -0.572146535 ],
			"type": "VEC3"
		},
		"accessor_normal_MatteHull_79348357-432d-4746-8e29-0e25c112e3aa_0_i1": {
			"bufferView": "vec3BufferView",
			"byteOffset": 2444400,
			"byteStride": 12,
			"componentType": 5126,
			"count": 8220,
			"max": [ 0.998536229, 0.99933815, 0.999568045 ],
			"min": [ -0.999361336, -0.999424338, -0.998896956 ],
			"type": "VEC3"
		},
		"accessor_color_MatteHull_79348357-432d-4746-8e29-0e25c112e3aa_0_i1": {
			"bufferView": "vec4BufferView",
			"byteOffset": 1042560,
			"byteStride": 16,
			"componentType": 5126,
			"count": 8220,
			"type": "VEC4"
		},
		"accessor_uv0_MatteHull_79348357-432d-4746-8e29-0e25c112e3aa_0_i1": {
			"bufferView": "vec3BufferView",
			"byteOffset": 2543040,
			"byteStride": 12,
			"componentType": 5126,
			"count": 8220,
			"max": [ 0, 1, 0.027508799 ],
			"min": [ 0, 1, 0.00807118136 ],
			"type": "VEC3"
		},
		"accessor_indices_0_MatteHull_79348357-432d-4746-8e29-0e25c112e3aa_0_i1": {
			"bufferView": "ushortBufferView",
			"byteOffset": 130320,
			"byteStride": 0,
			"componentType": 5123,
			"count": 8220,
			"max": [ 8219 ],
			"min": [ 0 ],
			"type": "SCALAR"
		}
	},
	"bufferViews": {
		"ushortBufferView": {
			"buffer": "buffer_sketch",
			"byteLength": 146760,
			"byteOffset": 0,
			"target": 34963
		},
		"vec3BufferView": {
			"buffer": "buffer_sketch",
			"byteLength": 2641680,
			"byteOffset": 146760,
			"target": 34962
		},
		"vec4BufferView": {
			"buffer": "buffer_sketch",
			"byteLength": 1174080,
			"byteOffset": 2788440,
			"target": 34962
		}
	},
	"meshes": {
		"mesh_MatteHull_79348357-432d-4746-8e29-0e25c112e3aa_0_i0": {
			"name": "mesh_MatteHull_79348357-432d-4746-8e29-0e25c112e3aa_0_i0",
			"primitives": [
				{
					"attributes": {
						"POSITION": "accessor_position_MatteHull_79348357-432d-4746-8e29-0e25c112e3aa_0_i0",
						"NORMAL": "accessor_normal_MatteHull_79348357-432d-4746-8e29-0e25c112e3aa_0_i0",
						"COLOR": "accessor_color_MatteHull_79348357-432d-4746-8e29-0e25c112e3aa_0_i0",
						"TEXCOORD_0": "accessor_uv0_MatteHull_79348357-432d-4746-8e29-0e25c112e3aa_0_i0"
					},
					"indices": "accessor_indices_0_MatteHull_79348357-432d-4746-8e29-0e25c112e3aa_0_i0",
					"material": "material_79348357-432d-4746-8e29-0e25c112e3aa",
					"mode": 4
				}
			]
		},
		"mesh_MatteHull_79348357-432d-4746-8e29-0e25c112e3aa_0_i1": {
			"name": "mesh_MatteHull_79348357-432d-4746-8e29-0e25c112e3aa_0_i1",
			"primitives": [
				{
					"attributes": {
						"POSITION": "accessor_position_MatteHull_79348357-432d-4746-8e29-0e25c112e3aa_0_i1",
						"NORMAL": "accessor_normal_MatteHull_79348357-432d-4746-8e29-0e25c112e3aa_0_i1",
						"COLOR": "accessor_color_MatteHull_79348357-432d-4746-8e29-0e25c112e3aa_0_i1",
						"TEXCOORD_0": "accessor_uv0_MatteHull_79348357-432d-4746-8e29-0e25c112e3aa_0_i1"
					},
					"indices": "accessor_indices_0_MatteHull_79348357-432d-4746-8e29-0e25c112e3aa_0_i1",
					"material": "material_79348357-432d-4746-8e29-0e25c112e3aa",
					"mode": 4
				}
			]
		}
	},
	"shaders": {
		"vertex_79348357-432d-4746-8e29-0e25c112e3aa": {
			"type": 35633,
			"uri": "https://www.tiltbrush.com/shaders/brushes/MatteHull-79348357-432d-4746-8e29-0e25c112e3aa/MatteHull-79348357-432d-4746-8e29-0e25c112e3aa-v10.0-vertex.glsl"
		},
		"fragment_79348357-432d-4746-8e29-0e25c112e3aa": {
			"type": 35632,
			"uri": "https://www.tiltbrush.com/shaders/brushes/MatteHull-79348357-432d-4746-8e29-0e25c112e3aa/MatteHull-79348357-432d-4746-8e29-0e25c112e3aa-v10.0-fragment.glsl"
		}
	},
	"programs": {
		"program_79348357-432d-4746-8e29-0e25c112e3aa": {
			"attributes": [
				"a_position",
				"a_normal",
				"a_color",
				"a_texcoord0"
			],
			"vertexShader": "vertex_79348357-432d-4746-8e29-0e25c112e3aa",
			"fragmentShader": "fragment_79348357-432d-4746-8e29-0e25c112e3aa"
		}
	},
	"techniques": {
		"technique_79348357-432d-4746-8e29-0e25c112e3aa": {
			"program": "program_79348357-432d-4746-8e29-0e25c112e3aa",
			"parameters": {
				"position": {
					"type": 35665,
					"semantic": "POSITION"
				},
				"normal": {
					"type": 35665,
					"semantic": "NORMAL"
				},
				"color": {
					"type": 35666,
					"semantic": "COLOR"
				},
				"texcoord0": {
					"type": 35665,
					"semantic": "TEXCOORD_0"
				},
				"modelViewMatrix": {
					"type": 35676,
					"semantic": "MODELVIEW"
				},
				"projectionMatrix": {
					"type": 35676,
					"semantic": "PROJECTION"
				},
				"normalMatrix": {
					"type": 35675,
					"semantic": "MODELVIEWINVERSETRANSPOSE"
				},
				"SceneLight_0_matrix": {
					"type": 35676,
					"semantic": "MODELVIEW",
					"node": "node_SceneLight_0_i1"
				},
				"SceneLight_0_color": {
					"type": 35666,
					"node": "node_SceneLight_0_i1"
				},
				"SceneLight_1_matrix": {
					"type": 35676,
					"semantic": "MODELVIEW",
					"node": "node_SceneLight_1_i2"
				},
				"SceneLight_1_color": {
					"type": 35666,
					"node": "node_SceneLight_1_i2"
				},
				"ambient_light_color": {
					"type": 35666
				},
				"Cutoff": {
					"type": 5126
				},
				"Color": {
					"type": 35666
				}
			},
			"attributes": {
				"a_position": "position",
				"a_normal": "normal",
				"a_color": "color",
				"a_texcoord0": "texcoord0"
			},
			"uniforms": {
				"u_modelViewMatrix": "modelViewMatrix",
				"u_projectionMatrix": "projectionMatrix",
				"u_normalMatrix": "normalMatrix",
				"u_SceneLight_0_matrix": "SceneLight_0_matrix",
				"u_SceneLight_0_color": "SceneLight_0_color",
				"u_SceneLight_1_matrix": "SceneLight_1_matrix",
				"u_SceneLight_1_color": "SceneLight_1_color",
				"u_ambient_light_color": "ambient_light_color",
				"u_Cutoff": "Cutoff",
				"u_Color": "Color"
			},
			"states": {
				"enable": [
					2929
				],
				"functions": {
					"depthMask": [true]
				}
			}
		}
	},
	"materials": {
		"material_79348357-432d-4746-8e29-0e25c112e3aa": {
			"technique": "technique_79348357-432d-4746-8e29-0e25c112e3aa",
			"values": {
				"SceneLight_0_color": [0.7780392, 0.8156863, 0.9913726, 1],
				"SceneLight_1_color": [0.4282353, 0.4211765, 0.3458824, 1],
				"ambient_light_color": [0.3921569, 0.3921569, 0.3921569, 1],
				"Cutoff": 0.5,
				"Color": [1, 1, 1, 1]
			},
			"name": "material_79348357-432d-4746-8e29-0e25c112e3aa"
		}
	},
	"nodes": {
		"node_MatteHull_79348357-432d-4746-8e29-0e25c112e3aa_0_i0": {
			"name": "node_MatteHull_79348357-432d-4746-8e29-0e25c112e3aa_0_i0",
			"meshes": [
				"mesh_MatteHull_79348357-432d-4746-8e29-0e25c112e3aa_0_i0"
			],
			"matrix": [1, 0, 0, 0, 0, 1, 0, 0, 0, 0, 1, 0, 0, 0, 0, 1]
		},
		"node_SceneLight_0_i1": {
			"name": "node_SceneLight_0_i1",
			"light": "SceneLight_0",
			"matrix": [0.898794, 0.2191856, -0.3796406, 0, -0.4383712, 0.449397, -0.7783785, 0, -1.490116E-08, 0.8660254, 0.4999999, 0, -0.6907148, 0.1012022, 2.015729, 1]
		},
		"node_SceneLight_1_i2": {
			"name": "node_SceneLight_1_i2",
			"light": "SceneLight_1",
			"matrix": [0.7660444, -0.4924039, -0.4131759, 0, -0.6427876, -0.5868242, -0.4924039, 0, 8.940697E-08, 0.6427876, -0.7660446, 0, -0.6907148, 0.07186172, 1.849331, 1]
		},
		"node_MatteHull_79348357-432d-4746-8e29-0e25c112e3aa_0_i1": {
			"name": "node_MatteHull_79348357-432d-4746-8e29-0e25c112e3aa_0_i1",
			"meshes": [
				"mesh_MatteHull_79348357-432d-4746-8e29-0e25c112e3aa_0_i1"
			],
			"matrix": [1, 0, 0, 0, 0, 1, 0, 0, 0, 0, 1, 0, 0, 0, 0, 1]
		}
	},
	"scene": "defaultScene",
	"scenes": {
		"defaultScene": {
			"nodes": [
				"node_MatteHull_79348357-432d-4746-8e29-0e25c112e3aa_0_i0",
				"node_SceneLight_0_i1",
				"node_SceneLight_1_i2",
				"node_MatteHull_79348357-432d-4746-8e29-0e25c112e3aa_0_i1"
			],
			"extras": {
				"TB_EnvironmentGuid": "ab080599-e465-4a6d-8587-43bf495af68b",
				"TB_Environment": "Standard",
				"TB_UseGradient": "true",
				"TB_SkyColorA": "0.2745098, 0.2745098, 0.3176471",
				"TB_SkyColorB": "0.5333334, 0.5333334, 0.8078431",
				"TB_SkyGradientDirection": "0, 1, 0",
				"TB_FogColor": "0.07058824, 0.2980392, 0.1215686",
				"TB_FogDensity": "0.0025",
				"TB_SkyColorHorizon": "0.2745098, 0.2745098, 0.3176471",
				"TB_SkyColorZenith": "0.5333334, 0.5333334, 0.8078431"
			}
		}
	}
}